<mxfile><diagram id="3xI3x7N9xwQF2wHP2WTg" name="Page-1"><mxGraphModel dx="1370" dy="646" grid="1" gridSize="10" guides="1" tooltips="1" connect="1" arrows="1" fold="1" page="1" pageScale="1" pageWidth="3300" pageHeight="4681" math="1" shadow="0"><root><mxCell id="0"/><mxCell id="1" parent="0"/><mxCell id="4" value="" style="edgeStyle=none;html=1;" edge="1" parent="1" source="2" target="3"><mxGeometry relative="1" as="geometry"/></mxCell><mxCell id="2" value="$$\diamond$$" style="ellipse;whiteSpace=wrap;html=1;aspect=fixed;" vertex="1" parent="1"><mxGeometry x="480" y="80" width="40" height="40" as="geometry"/></mxCell><mxCell id="7" style="edgeStyle=none;html=1;exitX=0;exitY=1;exitDx=0;exitDy=0;entryX=1;entryY=0;entryDx=0;entryDy=0;" edge="1" parent="1" source="3" target="5"><mxGeometry relative="1" as="geometry"/></mxCell><mxCell id="8" style="edgeStyle=none;html=1;exitX=1;exitY=1;exitDx=0;exitDy=0;entryX=0;entryY=0;entryDx=0;entryDy=0;" edge="1" parent="1" source="3" target="6"><mxGeometry relative="1" as="geometry"/></mxCell><mxCell id="3" value="$$p$$" style="ellipse;whiteSpace=wrap;html=1;aspect=fixed;" vertex="1" parent="1"><mxGeometry x="480" y="160" width="40" height="40" as="geometry"/></mxCell><mxCell id="5" value="$$T_1$$" style="ellipse;whiteSpace=wrap;html=1;aspect=fixed;" vertex="1" parent="1"><mxGeometry x="430" y="220" width="40" height="40" as="geometry"/></mxCell><mxCell id="6" value="$$T_2$$" style="ellipse;whiteSpace=wrap;html=1;aspect=fixed;" vertex="1" parent="1"><mxGeometry x="530" y="220" width="40" height="40" as="geometry"/></mxCell><mxCell id="20" style="edgeStyle=none;html=1;exitX=0;exitY=1;exitDx=0;exitDy=0;entryX=1;entryY=0;entryDx=0;entryDy=0;" edge="1" parent="1" source="13" target="16"><mxGeometry relative="1" as="geometry"/></mxCell><mxCell id="21" style="edgeStyle=none;html=1;exitX=1;exitY=1;exitDx=0;exitDy=0;entryX=0;entryY=0;entryDx=0;entryDy=0;" edge="1" parent="1" source="13" target="17"><mxGeometry relative="1" as="geometry"/></mxCell><mxCell id="13" value="$$p$$" style="ellipse;whiteSpace=wrap;html=1;aspect=fixed;" vertex="1" parent="1"><mxGeometry x="720" y="80" width="40" height="40" as="geometry"/></mxCell><mxCell id="14" value="$$T_1$$" style="ellipse;whiteSpace=wrap;html=1;aspect=fixed;" vertex="1" parent="1"><mxGeometry x="660" y="220" width="40" height="40" as="geometry"/></mxCell><mxCell id="15" value="$$T_2$$" style="ellipse;whiteSpace=wrap;html=1;aspect=fixed;" vertex="1" parent="1"><mxGeometry x="780" y="220" width="40" height="40" as="geometry"/></mxCell><mxCell id="18" value="" style="edgeStyle=none;html=1;" edge="1" parent="1" source="16" target="14"><mxGeometry relative="1" as="geometry"/></mxCell><mxCell id="16" value="$$\diamond$$" style="ellipse;whiteSpace=wrap;html=1;aspect=fixed;" vertex="1" parent="1"><mxGeometry x="660" y="160" width="40" height="40" as="geometry"/></mxCell><mxCell id="19" value="" style="edgeStyle=none;html=1;" edge="1" parent="1" source="17" target="15"><mxGeometry relative="1" as="geometry"/></mxCell><mxCell id="17" value="$$\diamond$$" style="ellipse;whiteSpace=wrap;html=1;aspect=fixed;" vertex="1" parent="1"><mxGeometry x="780" y="160" width="40" height="40" as="geometry"/></mxCell></root></mxGraphModel></diagram></mxfile>